<svg width="52" height="52" viewBox="0 0 52 52" fill="none" xmlns="http://www.w3.org/2000/svg">
<path d="M20.565 26.1895C20.1062 28.9935 20.3509 34.418 25.0005 33.6838M25.0005 33.6838V26.9542M25.0005 33.6838C26.7339 33.9897 29.8948 32.9191 28.6712 26.1895M25.0005 33.6838V42.4018" stroke="#EC1E1E" stroke-width="1.44" stroke-linejoin="bevel"/>
<path d="M33.8704 12.2604C31.5795 11.1057 28.9761 12.7302 28.6702 14.1067C28.3644 15.4831 28.2114 17.1656 28.2114 17.1656C26.376 20.5304 22.5524 19.7657 20.717 17.1656L20.2582 14.1067C17.964 10.13 14.2932 11.8125 13.3756 14.1067C12.4579 16.4008 13.1462 20.3168 16.2816 23.7423C18.7287 25.7306 19.7994 26.3424 24.9996 26.8012C35.8588 26.6482 36.842 15.4831 35.8587 14.1067C34.8755 12.7302 34.5451 12.6004 33.8704 12.2604ZM33.8704 12.2604C34.0744 10.8875 35.9199 8.90644 38 10.7418" stroke="#EC1E1E" stroke-width="1.44" stroke-linejoin="bevel"/>
<path d="M16.8926 19.6113C19.7476 22.9762 26.8647 27.6869 32.4931 19.6113" stroke="#EC1E1E" stroke-width="1.44" stroke-linejoin="bevel"/>
</svg>
