<svg width="28" height="28" viewBox="0 0 28 28" fill="none" xmlns="http://www.w3.org/2000/svg">
<path d="M14 10.7273C12.1918 10.7273 10.7273 12.1918 10.7273 14C10.7273 15.8082 12.1918 17.2727 14 17.2727C15.8082 17.2727 17.2727 15.8082 17.2727 14C17.2727 12.1918 15.8082 10.7273 14 10.7273ZM21.3145 13.1818C21.1292 11.5226 20.3852 9.9758 19.2047 8.7953C18.0242 7.61479 16.4774 6.87078 14.8182 6.68545V5H13.1818V6.68545C11.5226 6.87078 9.9758 7.61479 8.7953 8.7953C7.61479 9.9758 6.87078 11.5226 6.68545 13.1818H5V14.8182H6.68545C6.87078 16.4774 7.61479 18.0242 8.7953 19.2047C9.9758 20.3852 11.5226 21.1292 13.1818 21.3145V23H14.8182V21.3145C16.4774 21.1292 18.0242 20.3852 19.2047 19.2047C20.3852 18.0242 21.1292 16.4774 21.3145 14.8182H23V13.1818H21.3145ZM14 19.7273C10.8336 19.7273 8.27273 17.1664 8.27273 14C8.27273 10.8336 10.8336 8.27273 14 8.27273C17.1664 8.27273 19.7273 10.8336 19.7273 14C19.7273 17.1664 17.1664 19.7273 14 19.7273Z" fill="#EBBB40"/>
</svg>
