<svg width="28" height="28" viewBox="0 0 28 28" fill="none" xmlns="http://www.w3.org/2000/svg">
<path opacity="0.9" d="M17.1742 12.6721C17.1742 14.4746 15.7195 15.9323 13.9293 15.9323C12.1391 15.9323 10.6844 14.4746 10.6844 12.6721C10.6844 10.8696 12.1391 9.41191 13.9293 9.41191C15.7195 9.41191 17.1742 10.8696 17.1742 12.6721Z" fill="#971818" stroke="#971818" stroke-width="1.00545"/>
<path d="M6.54879 14.3963C6.87968 15.8693 7.64012 17.2111 8.73395 18.2522L14.2644 23.5157L19.5301 17.9876C20.5715 16.8942 21.2653 15.5167 21.5235 14.0292C21.7818 12.5417 21.593 11.0111 20.981 9.63093C20.369 8.25073 19.3613 7.08293 18.0853 6.2752C16.8093 5.46748 15.3223 5.05611 13.8125 5.09311C12.3026 5.13012 10.8376 5.61384 9.60273 6.48311C8.36788 7.35238 7.41864 8.56815 6.87504 9.97667C6.33145 11.3852 6.21791 12.9232 6.54879 14.3963Z" stroke="#971818" stroke-width="1.5" stroke-linejoin="bevel"/>
</svg>
