<svg width="52" height="52" viewBox="0 0 52 52" fill="none" xmlns="http://www.w3.org/2000/svg">
<path d="M15.8853 21.803L18.3036 33.4045H21.3628M15.8853 21.803L11.4568 24.3076L10 22.5803L23.3149 13.9727L21.188 12.5621V10L25.6748 12.8491M15.8853 21.803L25.6748 15.8152L35.5808 21.803M35.5808 21.803L33.0461 33.4045H30.4239M35.5808 21.803L39.6306 24.3076L41 22.5803L27.5686 14.0516M25.6748 12.8491L30.2491 10V12.5621L27.5686 14.0516M25.6748 12.8491C26.4144 13.3187 26.829 13.582 27.5686 14.0516M21.3628 33.4045L21.7707 38.0106M21.3628 33.4045H30.4239M21.7707 38.0106L17.4878 38.6439M21.7707 38.0106L20.85 41M21.7707 38.0106L24.725 38.675M30.4239 33.4045L29.9286 38.0106M29.9286 38.0106L34.025 38.8742M29.9286 38.0106L30.925 41M29.9286 38.0106L27.248 38.8742M25.7039 22.0045H20.8383L21.4065 25.7182M25.7039 22.0045H30.5695L30.0451 25.7182M25.7039 22.0045L25.7477 29.4318M25.7477 29.4318H29.5207L30.0451 25.7182M25.7477 29.4318H21.9746L21.4065 25.7182M21.4065 25.7182H30.0451" stroke="#EC1E1E" stroke-width="1.73952" stroke-linejoin="bevel"/>
</svg>
