<svg width="28" height="28" viewBox="0 0 28 28" fill="none" xmlns="http://www.w3.org/2000/svg">
<path d="M23.1276 7.1671L20.4651 4.50744C20.1401 4.18248 19.7051 4 19.2451 4C18.7851 4 18.3501 4.17998 18.0251 4.50744L15.1575 7.36958C14.8325 7.69454 14.65 8.13198 14.65 8.59193C14.65 9.05437 14.83 9.48681 15.1575 9.81427L17.3976 12.0565C16.8873 13.2453 16.1541 14.3255 15.2375 15.2386C14.32 16.161 13.2475 16.8884 12.0575 17.4033L9.81753 15.1611C9.49252 14.8361 9.05752 14.6537 8.59752 14.6537C8.37063 14.6528 8.14585 14.6973 7.93636 14.7844C7.72686 14.8715 7.53687 14.9996 7.37751 15.1611L4.5075 18.0232C4.1825 18.3482 4 18.7857 4 19.2456C4 19.708 4.18 20.1405 4.5075 20.4679L7.16751 23.1276C7.72252 23.6825 8.48752 24 9.27252 24C9.43502 24 9.59252 23.9875 9.75253 23.96C13.0625 23.4151 16.3476 21.6528 19.0001 19.0031C21.6501 16.3485 23.4101 13.0639 23.9601 9.75178C24.1176 8.8119 23.8026 7.84452 23.1276 7.1671ZM22.1876 9.45432C21.7001 12.4015 20.1151 15.3411 17.7276 17.7283C15.34 20.1155 12.4025 21.7003 9.45502 22.1877C9.08502 22.2502 8.70502 22.1252 8.43502 21.8578L5.82251 19.2456L8.59252 16.4734L11.5875 19.4731L11.61 19.4956L12.15 19.2956C13.7874 18.6937 15.2742 17.743 16.5075 16.5094C17.7409 15.2758 18.6912 13.7888 19.2926 12.1515L19.4926 11.6115L16.4726 8.59443L19.2426 5.82227L21.8551 8.43445C22.1251 8.70441 22.2501 9.08436 22.1876 9.45432Z" fill="#EBBB40"/>
</svg>
