<svg width="26" height="26" viewBox="0 0 26 26" fill="none" xmlns="http://www.w3.org/2000/svg">
<path d="M6.45117 6.86706H8.27698L10.2245 7.61042L12.0503 6.74316L13.3892 6.86706L14.2413 7.48653L15.1237 6.86706H16.8583L18.3798 7.61042L20.3273 6.86706V18.5131L16.7974 18.3892L15.8236 17.5219L13.8761 18.637L11.9286 17.7697L10.1028 18.5131L8.27698 17.7697L6.45117 18.5131V6.86706Z" fill="#F7C648"/>
<path d="M6.07965 7.9823V6H1V8.60177M6.07965 7.9823L8.06195 6L10.0442 7.9823L12.0265 6L14.0089 7.9823L15.9912 6L17.9735 7.9823L19.9558 6M6.07965 7.9823V19.1327M19.9558 6H24.9115V20H19.9558V17.1504M19.9558 6V17.1504M19.9558 17.1504L17.9735 19.1327L15.9912 17.1504L14.0089 19.1327L12.0265 17.1504L10.0442 19.1327L8.06195 17.1504L6.07965 19.1327M6.07965 19.1327V20H1V17.5221M1 17.5221H3.47788M1 17.5221V14.5487M1 14.5487H3.47788M1 14.5487V11.5752M1 11.5752H3.47788M1 11.5752V8.60177M1 8.60177H3.47788" stroke="#F7C648" stroke-width="1.06195" stroke-linejoin="round"/>
<circle cx="22.6827" cy="9.3448" r="0.867257" fill="#F7C648"/>
<circle cx="22.6827" cy="13.0626" r="0.867257" fill="#F7C648"/>
<circle cx="22.6827" cy="16.7784" r="0.867257" fill="#F7C648"/>
<path d="M16.5 11.634C17.1667 12.0189 17.1667 12.9811 16.5 13.366L12.75 15.5311C12.0833 15.916 11.25 15.4349 11.25 14.6651L11.25 10.3349C11.25 9.56513 12.0833 9.08401 12.75 9.46891L16.5 11.634Z" fill="white"/>
</svg>
