<svg width="28" height="28" viewBox="0 0 28 28" fill="none" xmlns="http://www.w3.org/2000/svg">
<path d="M5.18164 20.5H10.1816L13.1816 18L16.1816 20.5L21.6816 21L19.6816 22.5L13.1816 24.5L6.68164 22.5L5.18164 20.5Z" fill="#C4C4CC"/>
<path d="M3.81836 20.2281C4.49288 18.5227 5.41955 17.0772 6.26089 16.08C2.32791 6.98501 9.50947 4.12562 13.6063 3.81836C23.5924 5.47936 22.0338 12.8025 20.2414 16.08C21.4696 17.4868 22.3343 18.8778 22.9093 20.2281M3.81836 20.2281C6.88581 20.7914 11.6091 21.6107 13.2991 17.0018C14.6818 19.9208 17.476 21.6108 22.9093 20.2281M3.81836 20.2281C7.87514 24.3653 15.6373 27.1049 22.9093 20.2281" stroke="#C4C4CC" stroke-width="1.2" stroke-linejoin="bevel"/>
<path d="M18.2025 11.9315C18.2025 14.539 16.0888 16.6527 13.4813 16.6527C10.8738 16.6527 8.76007 14.539 8.76007 11.9315C8.76007 9.32403 10.8738 7.21027 13.4813 7.21027C16.0888 7.21027 18.2025 9.32403 18.2025 11.9315Z" stroke="#C4C4CC" stroke-width="1.00452"/>
</svg>
