<svg width="28" height="28" viewBox="0 0 28 28" fill="none" xmlns="http://www.w3.org/2000/svg">
<g clip-path="url(#clip0)">
<path d="M11.1652 20.7492C10.3304 21.5839 8.01972 21.486 6.99146 20.4577L3.47371 16.94C6.2266 14.7066 5.10574 12.7102 4.20121 11.9912L6.81675 9.37564C7.58818 9.14538 11.1059 12.6631 10.8757 13.4346L9.59574 14.7145L11.1652 16.284C12.4099 17.5287 11.9999 19.9144 11.1652 20.7492Z" fill="#C4C4CC" stroke="#C4C4CC" stroke-width="0.933636" stroke-linejoin="bevel"/>
<path d="M26.8633 16C27.1092 17.0419 26.7306 19.1772 25.3633 19.5C23.9959 19.8228 19.5739 20.2982 19.5739 20.2982C19.1849 17.105 16.9832 17.0478 15.9311 17.4184L15.1605 14.1539C15.3727 13.4438 20.0506 12.3396 20.558 12.8798L20.9351 14.4773L23.0221 13.9847C24.6773 13.5939 26.6173 14.9581 26.8633 16Z" fill="#C4C4CC" stroke="#C4C4CC" stroke-width="0.933636" stroke-linejoin="bevel"/>
<path d="M6.90508 8.62038C7.77476 8.37189 11.8126 12.4097 11.5641 13.2794M6.90508 8.62038C6.90508 8.62038 6.9672 7.31584 7.02932 7.00524C7.09145 6.69465 8.83082 5.0795 9.20355 4.83102C9.57627 4.58254 10.5702 4.58255 10.8187 4.70678C11.0672 4.83101 15.3535 8.9931 15.4777 9.36583C15.602 9.73855 15.2914 10.6704 15.2292 10.8567C15.1671 11.0431 13.3035 12.9067 13.055 13.0309C12.8065 13.1552 11.5641 13.2794 11.5641 13.2794M6.90508 8.62038L3.98541 11.54M11.5641 13.2794L10.1354 14.7082C10.1354 14.7082 10.5081 15.0809 11.9369 16.5097C13.3656 17.9385 12.4338 19.8642 11.502 20.796C10.5702 21.7278 8.45809 22.349 7.27781 21.1687C6.09752 19.9885 3.23997 17.1309 3.23997 17.1309M3.98541 11.54C3.98541 11.54 3.11572 12.4097 2.55664 12.9688C1.99756 13.5279 1.45089 15.143 2.49452 16.3855L3.23997 17.1309M3.98541 11.54C5.02076 12.3683 6.32115 14.6461 3.23997 17.1309" stroke="#C4C4CC" stroke-width="1.5" stroke-linejoin="bevel"/>
<path d="M14.3154 13.7927C14.535 12.9153 20.0508 11.4373 20.6798 12.0874M14.3154 13.7927C14.3154 13.7927 13.2167 13.0866 12.9788 12.8775M14.3154 13.7927L15.3841 17.781M20.6798 12.0874L21.2027 14.0391C21.2027 14.0391 21.7119 13.9027 23.6636 13.3797C25.6154 12.8567 26.8172 14.6266 27.1583 15.8995C27.4993 17.1723 26.9813 19.3121 25.369 19.7441C23.7567 20.1761 19.8532 21.222 19.8532 21.222M20.6798 12.0874C20.6798 12.0874 21.1934 10.9493 21.21 10.672C21.2267 10.3947 20.5445 7.84891 20.4142 7.70193C20.2839 7.55495 19.6322 6.82006 19.2473 6.74129L13.9367 7.70192M15.3841 17.781C15.3841 17.781 15.7024 18.9691 15.907 19.7328C16.1117 20.4965 17.2371 21.7775 18.8349 21.4949L19.8532 21.222M15.3841 17.781C16.619 17.2985 19.2418 17.3112 19.8532 21.222" stroke="#C4C4CC" stroke-width="1.5" stroke-linejoin="bevel"/>
</g>
<defs>
<clipPath id="clip0">
<rect width="28" height="28" fill="white"/>
</clipPath>
</defs>
</svg>
