<svg width="26" height="26" viewBox="0 0 26 26" fill="none" xmlns="http://www.w3.org/2000/svg">
<path d="M9 12.5C9 13.3284 8.10457 14 7 14C5.89543 14 5 13.3284 5 12.5C5 11.6716 5.89543 11 7 11C8.10457 11 9 11.6716 9 12.5Z" fill="#F7C648"/>
<path d="M20 7C20 8.10457 19.1046 9 18 9C16.8954 9 16 8.10457 16 7C16 5.89543 16.8954 5 18 5C19.1046 5 20 5.89543 20 7Z" fill="#F7C648"/>
<path d="M20 19C20 20.1046 19.1046 21 18 21C16.8954 21 16 20.1046 16 19C16 17.8954 16.8954 17 18 17C19.1046 17 20 17.8954 20 19Z" fill="#F7C648"/>
<path d="M7.12857 15.6691C7.9087 15.6647 8.65904 15.3672 9.23247 14.835L14.8132 18.0461C14.7421 18.294 14.7061 18.5506 14.7062 18.8086C14.7005 19.5365 14.9442 20.2442 15.3964 20.8125C15.8485 21.3808 16.4815 21.775 17.1887 21.9286C17.8959 22.0823 18.6341 21.9861 19.2791 21.6562C19.924 21.3264 20.4363 20.783 20.7297 20.1175C21.0231 19.4521 21.0796 18.7053 20.8897 18.0028C20.6999 17.3004 20.2753 16.6852 19.6874 16.2609C19.0995 15.8365 18.3843 15.629 17.6621 15.6731C16.94 15.7173 16.255 16.0105 15.7225 16.5033L10.1418 13.2921C10.2091 13.0711 10.2452 12.8416 10.2488 12.6104L15.7314 9.45307C16.261 9.9346 16.9391 10.2183 17.6519 10.2565C18.3646 10.2947 19.0688 10.0852 19.6463 9.66301C20.2238 9.24084 20.6394 8.63172 20.8235 7.93782C21.0076 7.24391 20.9489 6.50741 20.6574 5.85185C20.3658 5.19629 19.8591 4.66152 19.2222 4.33725C18.5853 4.01298 17.8569 3.91892 17.1593 4.07085C16.4616 4.22277 15.8371 4.61145 15.3905 5.17168C14.9438 5.73191 14.7022 6.42964 14.7062 7.14783C14.7092 7.40554 14.7452 7.66178 14.8132 7.91026L9.74062 10.8255C9.44671 10.368 9.03953 9.99528 8.55912 9.74405C8.07871 9.49283 7.54159 9.37171 7.00057 9.3926C6.45955 9.41349 5.93324 9.57566 5.47337 9.86318C5.0135 10.1507 4.63591 10.5537 4.3777 11.0325C4.11949 11.5113 3.98955 12.0495 4.00066 12.5941C4.01176 13.1388 4.16353 13.6711 4.44105 14.1389C4.71856 14.6066 5.11226 14.9937 5.58347 15.262C6.05467 15.5303 6.58715 15.6706 7.12857 15.6691ZM17.8264 17.4631C18.0909 17.4631 18.3494 17.542 18.5693 17.6899C18.7892 17.8377 18.9606 18.0478 19.0618 18.2937C19.1631 18.5395 19.1895 18.8101 19.1379 19.0711C19.0863 19.3321 18.959 19.5718 18.772 19.76C18.585 19.9481 18.3467 20.0763 18.0873 20.1282C17.8279 20.1801 17.559 20.1535 17.3147 20.0516C17.0703 19.9498 16.8615 19.7773 16.7145 19.5561C16.5676 19.3348 16.4892 19.0747 16.4892 18.8086C16.4892 18.4517 16.6301 18.1095 16.8808 17.8572C17.1316 17.6049 17.4717 17.4631 17.8264 17.4631ZM17.8264 5.80236C18.0909 5.80236 18.3494 5.88127 18.5693 6.02911C18.7892 6.17695 18.9606 6.38709 19.0618 6.63294C19.1631 6.87879 19.1895 7.14932 19.1379 7.41032C19.0863 7.67131 18.959 7.91105 18.772 8.09922C18.585 8.28739 18.3467 8.41553 18.0873 8.46745C17.8279 8.51936 17.559 8.49272 17.3147 8.39088C17.0703 8.28905 16.8615 8.11659 16.7145 7.89533C16.5676 7.67407 16.4892 7.41394 16.4892 7.14783C16.4892 6.79099 16.6301 6.44876 16.8808 6.19644C17.1316 5.94411 17.4717 5.80236 17.8264 5.80236ZM7.12857 11.1842C7.39304 11.1842 7.65158 11.2632 7.87149 11.411C8.0914 11.5588 8.26279 11.769 8.364 12.0148C8.46522 12.2607 8.4917 12.5312 8.4401 12.7922C8.3885 13.0532 8.26115 13.2929 8.07413 13.4811C7.88712 13.6693 7.64884 13.7974 7.38945 13.8493C7.13005 13.9012 6.86118 13.8746 6.61683 13.7728C6.37248 13.6709 6.16364 13.4985 6.0167 13.2772C5.86976 13.056 5.79134 12.7958 5.79134 12.5297C5.79134 12.1729 5.93222 11.8306 6.183 11.5783C6.43378 11.326 6.77391 11.1842 7.12857 11.1842Z" fill="#F7C648"/>
</svg>
