<svg width="52" height="52" viewBox="0 0 52 52" fill="none" xmlns="http://www.w3.org/2000/svg">
<path d="M23.1431 28.2221L19.4122 29.4657L21.8454 31.8989M27.1984 31.4123L25.9007 35.9542L23.3594 33.4129M21.8454 31.8989L13.4104 40.3339L14.9243 41.8479L23.3594 33.4129M21.8454 31.8989L23.3594 33.4129" stroke="#EC1E1E" stroke-width="1.44" stroke-linejoin="bevel"/>
<path d="M36.6611 27.4646C36.6611 27.4646 37.6521 26.9596 38.2832 27.6809C39.4944 29.0651 40.6984 26.9239 41.149 25.6803C41.5635 25.9146 42.5872 26.3183 43.3659 26.0588C44.1445 25.7992 43.2217 24.4727 42.6629 23.8419C41.9708 23.0633 42.8072 21.9313 43.3118 21.4627C48.5566 19.0296 43.528 16.3801 42.3926 18.9214C43.528 14.5417 39.8513 15.7313 39.8513 18.0022C39.8513 13.244 35.9042 15.0282 36.9315 17.4615C37.9588 19.8947 37.6885 20.922 36.2826 21.5709C34.8768 22.2197 29.6319 20.868 31.6326 16.4882C31.6326 16.4882 33.4168 15.0284 34.1738 13.1899C34.9309 11.3515 34.0117 10.216 32.6058 9.13459C31.1999 8.05322 28.2707 7.7796 26.4958 8.86428C21.8644 11.6946 24.6574 13.1179 26.9824 12.8115C19.0881 13.8929 21.305 18.8133 24.6574 17.84C20.9373 19.8298 22.7469 21.8413 24.1167 22.5983C20.2668 24.6313 23.2696 28.6001 25.2522 30.3304C33.99 36.0402 36.3907 31.3397 36.4989 28.2757C36.542 27.9045 36.6611 27.4646 36.6611 27.4646ZM36.6611 27.4646C36.6611 27.4646 37.4074 25.1179 39.7432 25.0314M27.4691 22.2738C24.8737 25.1936 27.6853 31.4658 33.2546 28.0594" stroke="#EC1E1E" stroke-width="1.44" stroke-linejoin="bevel"/>
<path d="M27.9014 10.7021C28.5683 10.1794 30.194 9.5342 31.3619 11.1347" stroke="#EC1E1E" stroke-width="1.44" stroke-linejoin="bevel"/>
</svg>
