<svg width="52" height="52" viewBox="0 0 52 52" fill="none" xmlns="http://www.w3.org/2000/svg">
<rect x="19.2688" y="19.0862" width="12.941" height="7.29135" rx="2.28" stroke="#EC1E1E" stroke-width="1.44"/>
<path d="M18.6769 24.2722V24.2722C17.0459 24.2722 15.7237 22.95 15.7237 21.3189V19.1361C15.7237 16.2995 18.0232 14 20.8598 14H30.7467C33.5833 14 35.8828 16.2995 35.8828 19.1361V21.1905C35.8828 22.8925 34.5031 24.2722 32.8012 24.2722V24.2722M16.2373 23.0021V25.3597C16.2373 26.5522 15.3089 27.5385 14.1186 27.6106L13.2429 27.6637C12.5446 27.706 12 28.2846 12 28.9842V28.9842C12 29.7148 12.5923 30.3071 13.3229 30.3071H15.8377C16.1034 30.3071 16.3708 30.287 16.6195 30.1937C17.4736 29.873 18.6769 28.9925 18.6769 27.2254M18.6769 27.2254V24.6319M18.6769 27.2254C18.8518 30.8588 19.9775 37.3302 26.0433 37.4055C32.1091 37.4807 32.589 28.8835 32.8012 24.4424V27.4822C32.8012 29.3935 34.2089 30.2676 35.0598 30.518C35.1792 30.5531 35.3035 30.5639 35.428 30.5639H38.1552C38.8858 30.5639 39.4781 29.9716 39.4781 29.241C39.4781 28.5415 38.9335 27.9628 38.2352 27.9205L36.9297 27.8414C35.9809 27.7839 35.2408 26.9976 35.2408 26.0471V23.0021" stroke="#EC1E1E" stroke-width="1.44"/>
</svg>
