<svg width="28" height="28" viewBox="0 0 28 28" fill="none" xmlns="http://www.w3.org/2000/svg">
<path d="M17.488 15.6C17.552 15.072 17.6 14.544 17.6 14C17.6 13.456 17.552 12.928 17.488 12.4H20.192C20.32 12.912 20.4 13.448 20.4 14C20.4 14.552 20.32 15.088 20.192 15.6H17.488ZM16.072 20.048C16.552 19.16 16.92 18.2 17.176 17.2H19.536C18.7609 18.5346 17.5313 19.5456 16.072 20.048ZM15.872 15.6H12.128C12.048 15.072 12 14.544 12 14C12 13.456 12.048 12.92 12.128 12.4H15.872C15.944 12.92 16 13.456 16 14C16 14.544 15.944 15.072 15.872 15.6ZM14 20.368C13.336 19.408 12.8 18.344 12.472 17.2H15.528C15.2 18.344 14.664 19.408 14 20.368ZM10.8 10.8H8.464C9.23108 9.46177 10.4598 8.44919 11.92 7.952C11.44 8.84 11.08 9.8 10.8 10.8ZM8.464 17.2H10.8C11.08 18.2 11.44 19.16 11.92 20.048C10.4629 19.5453 9.23588 18.5342 8.464 17.2ZM7.808 15.6C7.68 15.088 7.6 14.552 7.6 14C7.6 13.448 7.68 12.912 7.808 12.4H10.512C10.448 12.928 10.4 13.456 10.4 14C10.4 14.544 10.448 15.072 10.512 15.6H7.808ZM14 7.624C14.664 8.584 15.2 9.656 15.528 10.8H12.472C12.8 9.656 13.336 8.584 14 7.624ZM19.536 10.8H17.176C16.9256 9.80917 16.5549 8.85272 16.072 7.952C17.544 8.456 18.768 9.472 19.536 10.8ZM14 6C9.576 6 6 9.6 6 14C6 16.1217 6.84285 18.1566 8.34315 19.6569C9.08601 20.3997 9.96793 20.989 10.9385 21.391C11.9091 21.7931 12.9494 22 14 22C16.1217 22 18.1566 21.1571 19.6569 19.6569C21.1571 18.1566 22 16.1217 22 14C22 12.9494 21.7931 11.9091 21.391 10.9385C20.989 9.96793 20.3997 9.08601 19.6569 8.34315C18.914 7.60028 18.0321 7.011 17.0615 6.60896C16.0909 6.20693 15.0506 6 14 6Z" fill="#EBBB40"/>
</svg>
